name X:\Health\ResearchProjects\ASalo\Sprinting 2016\NHaralabidis\Running_implicit_muscleDriven\Running_implicit_muscleDriven\Study2\ExperimentalData\IK_Splined\twoSteps_IK_BSplines_100_meshInts_study2_p02_s_01_lowIK.mot
datacolumns 38
datarows 5
range 0.31600000 0.32068000
endheader
                time	         pelvis_tilt	         pelvis_list	     pelvis_rotation	           pelvis_tx	           pelvis_ty	           pelvis_tz	       hip_flexion_r	     hip_adduction_r	      hip_rotation_r	        knee_angle_r	       ankle_angle_r	    subtalar_angle_r	         mtp_angle_r	       hip_flexion_l	     hip_adduction_l	      hip_rotation_l	        knee_angle_l	       ankle_angle_l	    subtalar_angle_l	         mtp_angle_l	    lumbar_extension	      lumbar_bending	     lumbar_rotation	          arm_flex_r	           arm_add_r	           arm_rot_r	        elbow_flex_r	           pro_sup_r	        wrist_flex_r	         wrist_dev_r	          arm_flex_l	           arm_add_l	           arm_rot_l	        elbow_flex_l	           pro_sup_l	        wrist_flex_l	         wrist_dev_l	
          0.31600000	        -25.22786587	         -8.95109458	         11.35246158	         -1.42092899	          0.82342388	          0.29806959	         86.84486541	         -6.51514589	         -4.40529787	        -89.39262124	          6.57275324	        -24.05433005	         -0.92640861	         -6.29496730	         -9.52403583	         11.63824883	        -31.31057086	        -39.06980212	        -13.09849300	          2.54415810	        -18.30796523	         18.59092094	          0.18110881	        -71.92074628	         11.61548344	        -32.90714978	         62.06757885	         73.40276693	         -4.14774569	          7.54245895	         43.68580228	         -4.15919989	         26.60669829	        141.59290634	         47.33355330	         -4.63166719	          4.56441835	
          0.31672564	        -25.14701052	         -8.78703829	         11.24309410	         -1.41729399	          0.82400885	          0.29795159	         86.40829359	         -6.47995756	         -4.30973680	        -89.20384125	          6.49218803	        -24.03447208	         -0.87693806	         -6.24286892	         -9.23045511	         11.55273886	        -31.67990802	        -38.75701937	        -11.78923375	          2.82088915	        -18.49418927	         18.49072829	          0.15123749	        -71.55286779	         11.39469519	        -32.85818860	         62.22239823	         73.33361388	         -4.11730686	          7.57425622	         42.93752333	         -4.32337070	         26.40432150	        141.49416941	         47.43635262	         -4.71503900	          4.59906817	
          0.31901836	        -24.89154059	         -8.26868737	         10.89753752	         -1.40580890	          0.82585713	          0.29757875	         85.02890484	         -6.36877681	         -4.00780284	        -88.60737356	          6.23763483	        -23.97172900	         -0.72063133	         -6.07825929	         -8.30285989	         11.28256228	        -32.84686270	        -37.76875357	         -7.65250898	          3.69524630	        -19.08258121	         18.17416041	          0.05685633	        -70.39052193	         10.69709446	        -32.70349125	         62.71156427	         73.11511847	         -4.02113261	          7.67472263	         40.57326727	         -4.84208344	         25.76489345	        141.18220102	         47.76115648	         -4.97845991	          4.70854744	
          0.32068000	        -24.70035132	         -7.90783670	         10.65591957	         -1.39748631	          0.82716637	          0.29734447	         84.00256210	         -6.29371217	         -3.80216773	        -88.14770383	          6.05038170	        -23.90470766	         -0.59699078	         -5.92592083	         -7.66976416	         11.01894739	        -33.74071728	        -37.15262315	         -4.95978162	          4.30077772	        -19.51199819	         17.94910696	         -0.02953618	        -69.53470093	         10.16745753	        -32.54963084	         63.07796715	         72.96446582	         -3.95314618	          7.74823343	         38.84282493	         -5.21004449	         25.24179101	        140.86922031	         47.97086184	         -5.17408352	          4.79380984	
          0.32068000	        -24.70035132	         -7.90783670	         10.65591957	         -1.39748631	          0.82716637	          0.29734447	         84.00256210	         -6.29371217	         -3.80216773	        -88.14770383	          6.05038170	        -23.90470766	         -0.59699078	         -5.92592083	         -7.66976416	         11.01894739	        -33.74071728	        -37.15262315	         -4.95978162	          4.30077772	        -19.51199819	         17.94910696	         -0.02953618	        -69.53470093	         10.16745753	        -32.54963084	         63.07796715	         72.96446582	         -3.95314618	          7.74823343	         38.84282493	         -5.21004449	         25.24179101	        140.86922031	         47.97086184	         -5.17408352	          4.79380984	
